<?xml version="1.0" encoding="UTF-8"?>
<svg xmlns="http://www.w3.org/2000/svg" id="Layer_1" data-name="Layer 1" viewBox="0 0 24 24" width="512" height="512"><path d="m20,6.051v-1.551c0-2.481-2.019-4.5-4.5-4.5h-7c-2.481,0-4.5,2.019-4.5,4.5v1.551c-2.244.252-4,2.139-4,4.449v9c0,2.481,2.019,4.5,4.5,4.5h15c2.481,0,4.5-2.019,4.5-4.5v-9c0-2.31-1.756-4.197-4-4.449ZM1,19.5v-9c0-1.758,1.308-3.204,3-3.449v15.899c-1.692-.245-3-1.691-3-3.449ZM5,4.5c0-1.93,1.57-3.5,3.5-3.5h7c1.93,0,3.5,1.57,3.5,3.5v18.5H5V4.5Zm18,15c0,1.758-1.308,3.204-3,3.449V7.051c1.692.245,3,1.691,3,3.449v9Zm-12-5c0,.276-.224.5-.5.5h-2c-.276,0-.5-.224-.5-.5s.224-.5.5-.5h2c.276,0,.5.224.5.5Zm5,0c0,.276-.224.5-.5.5h-2c-.276,0-.5-.224-.5-.5s.224-.5.5-.5h2c.276,0,.5.224.5.5Zm-5,4c0,.276-.224.5-.5.5h-2c-.276,0-.5-.224-.5-.5s.224-.5.5-.5h2c.276,0,.5.224.5.5Zm5,0c0,.276-.224.5-.5.5h-2c-.276,0-.5-.224-.5-.5s.224-.5.5-.5h2c.276,0,.5.224.5.5Zm-3.5-11v2c0,.276-.224.5-.5.5s-.5-.224-.5-.5v-2h-2c-.276,0-.5-.224-.5-.5s.224-.5.5-.5h2v-2c0-.276.224-.5.5-.5s.5.224.5.5v2h2c.276,0,.5.224.5.5s-.224.5-.5.5h-2Z"/></svg>
